HIERARCHY
ROOT SpineBase
{
  OFFSET 0.000000 0.000000 0.000000
  CHANNELS 6 Xposition Yposition Zposition Zrotation Xrotation Yrotation
  JOINT SpineMid
  {
    OFFSET 0.000000 30.010168 0.000000
    CHANNELS 3 Zrotation Xrotation Yrotation
    JOINT SpineShoulder
    {
      OFFSET 0.052210 22.398377 -0.653812
      CHANNELS 3 Zrotation Xrotation Yrotation
      JOINT Neck
      {
        OFFSET 0.011048 7.447852 -0.517841
        CHANNELS 3 Zrotation Xrotation Yrotation
        JOINT Head
        {
          OFFSET -3.262160 13.651631 0.290146
          CHANNELS 3 Zrotation Xrotation Yrotation
          End Site
          {
            OFFSET 0 0 0
          }
        }
      }
      JOINT ShoulderLeft
      {
        OFFSET -14.014373 -3.469184 6.082460
        CHANNELS 3 Zrotation Xrotation Yrotation
        JOINT ElbowLeft
        {
          OFFSET -1.731204 -24.855947 2.955762
          CHANNELS 3 Zrotation Xrotation Yrotation
          JOINT WristLeft
          {
            OFFSET -3.524680 -22.110091 -4.377510
            CHANNELS 3 Zrotation Xrotation Yrotation
            JOINT HandLeft
            {
              OFFSET 0.742152 -3.197777 -1.057190
              CHANNELS 3 Zrotation Xrotation Yrotation
              JOINT HandTipLeft
              {
                OFFSET 0.173082 -4.135879 -2.695865
                CHANNELS 3 Zrotation Xrotation Yrotation
                End Site
                {
                  OFFSET 0 0 0
                }
              }
              JOINT ThumbLeft
              {
                OFFSET 2.100735 0.937769 -6.189419
                CHANNELS 3 Zrotation Xrotation Yrotation
                End Site
                {
                  OFFSET 0 0 0
                }
              }
            }
          }
        }
      }
      JOINT ShoulderRight
      {
        OFFSET 13.198510 -2.028715 -8.936155
        CHANNELS 3 Zrotation Xrotation Yrotation
        JOINT ElbowRight
        {
          OFFSET 12.565911 -21.768721 -1.974462
          CHANNELS 3 Zrotation Xrotation Yrotation
          JOINT WristRight
          {
            OFFSET 6.602832 -19.661608 -5.148806
            CHANNELS 3 Zrotation Xrotation Yrotation
            JOINT HandRight
            {
              OFFSET 1.939433 -8.335999 -1.274428
              CHANNELS 3 Zrotation Xrotation Yrotation
              JOINT HandTipRight
              {
                OFFSET 3.484931 -7.364156 -0.288583
                CHANNELS 3 Zrotation Xrotation Yrotation
                End Site
                {
                  OFFSET 0 0 0
                }
              }
              JOINT ThumbRight
              {
                OFFSET -3.243243 -1.426842 -2.666745
                CHANNELS 3 Zrotation Xrotation Yrotation
                End Site
                {
                  OFFSET 0 0 0
                }
              }
            }
          }
        }
      }
    }
  }
  JOINT HipLeft
  {
    OFFSET -7.166958 1.488293 -0.603448
    CHANNELS 3 Zrotation Xrotation Yrotation
    JOINT KneeLeft
    {
      OFFSET -3.042082 -26.304048 -0.879241
      CHANNELS 3 Zrotation Xrotation Yrotation
      JOINT AnkleLeft
      {
        OFFSET -0.522775 -32.398320 4.038755
        CHANNELS 3 Zrotation Xrotation Yrotation
        JOINT FootLeft
        {
          OFFSET -4.559939 -2.980717 -12.257440
          CHANNELS 3 Zrotation Xrotation Yrotation
          End Site
          {
            OFFSET 0 0 0
          }
        }
      }
    }
  }
  JOINT HipRight
  {
    OFFSET 6.720425 0.844324 -5.962191
    CHANNELS 3 Zrotation Xrotation Yrotation
    JOINT KneeRight
    {
      OFFSET 6.883613 -23.145948 -0.559589
      CHANNELS 3 Zrotation Xrotation Yrotation
      JOINT AnkleRight
      {
        OFFSET 4.891151 -34.567221 4.385294
        CHANNELS 3 Zrotation Xrotation Yrotation
        JOINT FootRight
        {
          OFFSET -0.202601 -8.205230 -5.650565
          CHANNELS 3 Zrotation Xrotation Yrotation
          End Site
          {
            OFFSET 0 0 0
          }
        }
      }
    }
  }
}
MOTION
Frames: 13
Frame Time: 0.033333
22.437938 68.543387 353.902495 -0.000000 0.000000 21.100172 -0.000000 0.000000 -21.100172 -0.000000 0.000000 0.000000 -0.000000 0.000000 0.000000 0.000000 0.000000 0.000000 -0.000000 0.000000 0.000000 -0.000000 0.000000 0.000000 -0.000000 0.000000 0.000000 -0.000000 0.000000 0.000000 0.000000 0.000000 0.000000 0.000000 0.000000 0.000000 -0.000000 0.000000 0.000000 -0.000000 0.000000 0.000000 -0.000000 0.000000 0.000000 -0.000000 0.000000 0.000000 0.000000 0.000000 0.000000 0.000000 0.000000 0.000000 -0.000000 0.000000 -21.100172 -0.000000 0.000000 0.000000 -0.000000 0.000000 0.000000 0.000000 0.000000 0.000000 -0.000000 0.000000 -21.100172 -0.000000 0.000000 0.000000 -0.000000 0.000000 0.000000 0.000000 0.000000 0.000000
21.690936 68.782394 354.658347 0.138798 0.143685 19.798393 -0.179261 -0.088179 -19.798705 -0.000000 0.000000 0.000000 -1.809644 -0.160379 -0.002401 0.000000 0.000000 0.000000 -0.000000 0.000000 0.000000 1.776085 0.219742 -0.390922 -7.747188 4.073168 3.557957 8.383269 -6.192875 -4.339429 0.000000 0.000000 0.000000 0.000000 0.000000 0.000000 0.218853 -1.346953 -0.794796 -1.394679 0.913644 0.989270 0.080678 2.525485 0.514839 0.673652 0.141708 0.443124 0.000000 0.000000 0.000000 0.000000 0.000000 0.000000 -0.179261 -0.088179 -19.798705 0.919345 0.507266 0.102422 -0.650560 -0.212025 -1.654697 0.000000 0.000000 0.000000 0.952064 2.188925 -19.076245 0.996144 -1.983349 -0.453467 -8.043327 0.885199 4.328646 0.000000 0.000000 0.000000
20.921653 68.975962 355.389311 0.373769 0.302473 18.347756 -0.449983 -0.169433 -18.349408 0.810184 0.129814 0.055227 -4.230726 -0.411695 -0.068937 0.000000 0.000000 0.000000 -0.810311 -0.129020 -0.057057 3.534896 0.420297 -0.783329 -13.276005 6.252703 6.038519 13.348190 -10.633472 -6.541748 0.000000 0.000000 0.000000 0.000000 0.000000 0.000000 -1.016869 -2.515457 -1.425111 -2.157692 1.683725 1.834611 -0.375762 4.729079 1.086951 1.670192 0.112840 0.745368 0.000000 0.000000 0.000000 0.000000 0.000000 0.000000 0.875616 -0.473436 -18.402191 0.472144 0.838842 0.259810 -1.254842 -0.381897 -3.424045 0.000000 0.000000 0.000000 1.453530 3.965773 -17.081591 1.799855 -3.457467 -0.729970 -14.902993 2.889829 8.063838 0.000000 0.000000 0.000000
20.130089 69.124090 356.095386 0.706043 0.476076 16.748697 0.372130 -0.248952 -16.715930 0.152780 -0.108344 0.058518 -6.127188 -0.604969 -0.114939 0.000000 0.000000 0.000000 -1.515189 0.553185 -0.173299 5.507373 -0.174020 -1.021108 -16.993750 7.192951 7.509426 16.113743 -13.653050 -7.685562 0.000000 0.000000 0.000000 0.000000 0.000000 0.000000 -2.549493 -3.363927 -1.840674 -2.304096 2.338174 2.522454 -1.437705 6.577887 1.742955 3.073973 -0.046982 0.923245 0.000000 0.000000 0.000000 0.000000 0.000000 0.000000 1.238594 -0.601711 -16.837065 0.652122 1.120811 0.391261 -1.807949 -0.508428 -5.311145 0.000000 0.000000 0.000000 1.560462 5.355754 -15.078306 2.412127 -4.471242 -0.889723 -20.131953 6.229938 11.011272 0.000000 0.000000 0.000000
19.316243 69.226779 356.776573 1.136023 0.664068 15.003848 0.442889 -0.285297 -14.958185 0.172585 -0.131575 0.081556 -7.886841 -0.790977 -0.168386 0.000000 0.000000 0.000000 -2.585749 1.064188 -0.318773 7.787981 -0.626730 -1.196661 -19.223730 7.268357 8.114379 17.302123 -15.596174 -8.241598 0.000000 0.000000 0.000000 0.000000 0.000000 0.000000 -4.768995 -3.950886 -2.082472 -1.830252 2.892820 3.043514 -3.180899 8.023170 2.494217 4.972358 -0.290452 0.994805 0.000000 0.000000 0.000000 0.000000 0.000000 0.000000 1.548775 -0.660989 -15.132904 0.787645 1.308365 0.526548 -2.305099 -0.591273 -7.319022 0.000000 0.000000 0.000000 1.322214 6.375297 -13.043256 2.829485 -5.066505 -0.976646 -23.436870 10.961585 13.007604 0.000000 0.000000 0.000000
18.480117 69.284028 357.432872 1.663339 0.865870 13.118054 0.483529 -0.300813 -13.059900 0.176307 -0.147937 0.106093 -9.515470 -0.970178 -0.228965 0.000000 0.000000 0.000000 -3.935634 1.742647 -0.503262 10.297705 -1.262525 -1.253530 -20.171259 6.656045 7.981677 17.239154 -16.717728 -8.405490 0.000000 0.000000 0.000000 0.000000 0.000000 0.000000 -7.701035 -4.279449 -2.151647 -0.716678 3.350950 3.390843 -5.677604 8.998856 3.326699 7.449397 -0.559943 0.978305 0.000000 0.000000 0.000000 0.000000 0.000000 0.000000 1.804261 -0.654760 -13.296353 0.873483 1.399439 0.667683 -2.741774 -0.630981 -9.450433 0.000000 0.000000 0.000000 0.784517 7.031322 -10.965648 3.046111 -5.276535 -1.020848 -24.598124 16.915256 13.838645 0.000000 0.000000 0.000000
17.514460 69.223515 358.110670 2.437892 1.063161 10.873652 0.467312 -0.299079 -10.801656 0.146672 -0.160493 0.135851 -10.953633 -1.274032 -0.350841 0.000000 0.000000 0.000000 -6.023270 2.894999 -0.775767 14.058413 -2.415211 -1.115181 -19.685870 5.244061 6.920629 15.681586 -16.987474 -8.177815 0.000000 0.000000 0.000000 0.000000 0.000000 0.000000 -12.918496 -4.254578 -1.939859 2.111456 3.439774 3.394760 -9.230915 10.450745 4.682422 10.763758 -1.634905 0.690590 0.000000 0.000000 0.000000 0.000000 0.000000 0.000000 1.805777 -0.344551 -11.141233 1.295472 1.168006 0.884770 -3.341619 -0.567313 -12.055588 0.000000 0.000000 0.000000 0.057937 7.690634 -8.540662 3.228568 -5.050432 -0.998614 -25.617576 28.662139 14.822866 0.000000 0.000000 0.000000
16.601779 69.123896 358.771376 3.329694 1.272403 8.532046 0.454262 -0.307481 -8.446146 0.124961 -0.176622 0.171522 -12.761334 -1.780457 -0.557536 0.000000 0.000000 0.000000 -8.162088 4.188515 -1.034403 17.036215 -3.743241 -0.699526 -17.979417 3.069634 5.407458 13.798589 -17.173926 -7.766869 0.000000 0.000000 0.000000 0.000000 0.000000 0.000000 -18.428208 -4.186812 -1.706591 6.249432 3.434493 2.952166 -16.358296 9.999333 6.337489 16.561704 -1.767204 0.303549 0.000000 0.000000 0.000000 0.000000 0.000000 0.000000 1.610634 -0.100868 -8.883960 1.613005 1.029441 1.073260 -3.764772 -0.544079 -14.701037 0.000000 0.000000 0.000000 -0.699754 8.390485 -6.005242 3.102534 -5.006457 -1.056924 -21.901193 34.808813 11.847617 0.000000 0.000000 0.000000
15.738503 69.080891 359.374931 4.181198 1.534589 6.238555 0.426754 -0.278427 -6.146660 0.098375 -0.169723 0.203639 -14.190269 -1.603031 -0.532911 0.000000 0.000000 0.000000 -10.275732 5.309044 -1.282390 19.867052 -4.725436 -0.242310 -15.588917 0.304250 3.752930 10.924642 -18.023220 -6.769288 0.000000 0.000000 0.000000 0.000000 0.000000 0.000000 -23.242531 -3.690349 -1.095616 8.447337 3.379119 2.940832 -20.739727 8.587501 6.512868 21.484050 -0.983764 0.293137 0.000000 0.000000 0.000000 0.000000 0.000000 0.000000 1.550912 -0.049991 -6.662841 1.571544 0.954749 1.221077 -3.997387 -0.506069 -17.119318 0.000000 0.000000 0.000000 -2.245213 7.613877 -3.853643 2.788664 -3.973663 -1.012837 -10.447672 35.447835 3.281374 0.000000 0.000000 0.000000
15.049948 69.077037 359.798248 4.958320 1.882925 4.426684 0.381466 -0.227839 -4.339786 0.068630 -0.147076 0.230911 -15.486338 -1.405659 -0.484853 0.000000 0.000000 0.000000 -12.127381 6.020506 -1.511908 21.992370 -5.055822 0.096664 -12.638381 -3.449908 2.096085 7.874982 -16.116694 -5.412016 0.000000 0.000000 0.000000 0.000000 0.000000 0.000000 -26.861091 -2.873621 -0.168899 8.889781 3.634134 3.356923 -22.415958 5.939929 4.739074 24.254686 -0.453165 -0.310720 0.000000 0.000000 0.000000 0.000000 0.000000 0.000000 1.640693 -0.242443 -4.901558 1.170056 0.917598 1.318126 -4.055119 -0.406401 -19.087110 0.000000 0.000000 0.000000 -4.156670 5.579374 -2.502021 1.881515 -2.882849 -1.016709 6.029307 36.385603 -8.177926 0.000000 0.000000 0.000000
14.408150 69.184954 359.986443 5.572362 2.254109 3.120014 0.293467 -0.131336 -3.051263 0.016826 -0.092064 0.245649 -16.095037 -0.677964 -0.231246 0.000000 0.000000 0.000000 -13.344172 6.304501 -1.706744 23.957770 -4.482384 0.056900 -12.358475 -6.761399 1.632315 7.631201 -13.099576 -5.379808 0.000000 0.000000 0.000000 0.000000 0.000000 0.000000 -28.970404 -1.872146 0.946037 7.150173 4.674794 4.513705 -20.944711 2.039981 0.828469 23.799409 3.216432 0.634475 0.000000 0.000000 0.000000 0.000000 0.000000 0.000000 2.161466 -0.761508 -3.591336 0.088883 1.121508 1.316842 -3.780909 -0.272295 -20.701365 0.000000 0.000000 0.000000 -6.194326 2.256997 -2.068166 0.487024 -1.100521 -0.834493 10.186278 36.079686 -9.096645 0.000000 0.000000 0.000000
13.826455 69.321362 360.176205 5.771250 2.882968 1.681624 0.252322 0.015780 -1.652636 -0.021733 -0.040249 0.246232 -16.615534 -0.140509 0.017853 0.000000 0.000000 0.000000 -13.782974 5.617009 -1.897387 24.603640 -3.257327 -0.274587 -11.724839 -10.624089 1.150104 5.251399 -13.515116 -3.663032 0.000000 0.000000 0.000000 0.000000 0.000000 0.000000 -29.747258 -1.497154 1.602407 4.669146 6.396969 6.104605 -16.907700 -0.338254 -2.435783 21.716584 4.474436 1.455135 0.000000 0.000000 0.000000 0.000000 0.000000 0.000000 3.034072 -1.397694 -2.129661 -1.069626 1.173990 1.318764 -3.425862 -0.089943 -21.945227 0.000000 0.000000 0.000000 -8.180351 -2.179344 -1.876379 -0.944521 0.328952 -0.491611 13.287060 27.128021 -8.296127 0.000000 0.000000 0.000000
13.320178 69.430747 360.515713 5.849700 3.568864 0.381540 0.274883 0.175985 -0.394792 -0.080733 0.038529 0.240624 -16.798255 0.193289 0.213412 0.000000 0.000000 0.000000 -13.954048 4.551648 -2.087878 24.674529 -2.403348 -0.531534 -11.054243 -13.282949 0.764509 1.912488 -14.944830 -1.099296 0.000000 0.000000 0.000000 0.000000 0.000000 0.000000 -30.396956 -1.281919 2.150273 2.350721 7.478600 7.344775 -9.866431 -0.822038 -3.996743 17.041577 3.592079 2.027203 0.000000 0.000000 0.000000 0.000000 0.000000 0.000000 3.760623 -1.661510 -0.859670 -1.685168 0.754096 1.420991 -3.275255 0.174271 -23.361275 0.000000 0.000000 0.000000 -10.432849 -7.151593 -2.177237 -1.835758 1.890512 0.118464 17.557809 23.039976 -8.829506 0.000000 0.000000 0.000000
